<?xml version="1.0" standalone="no"?>
<!DOCTYPE svg PUBLIC "-//W3C//DTD SVG 20010904//EN"
 "http://www.w3.org/TR/2001/REC-SVG-20010904/DTD/svg10.dtd">
<svg version="1.0" xmlns="http://www.w3.org/2000/svg"
 width="512.000000pt" height="512.000000pt" viewBox="0 0 512.000000 512.000000"
 preserveAspectRatio="xMidYMid meet">
<metadata>
Created by potrace 1.14, written by Peter Selinger 2001-2017
</metadata>
<g transform="translate(0.000000,512.000000) scale(0.100000,-0.100000)"
fill="#000000" stroke="none">
<path d="M1276 4927 c-3 -19 -24 -58 -47 -88 -81 -109 -114 -214 -106 -337 6
-97 32 -165 103 -272 51 -77 55 -89 52 -130 -3 -33 -17 -65 -50 -115 -65 -100
-85 -143 -97 -210 -19 -104 -33 -95 148 -95 l159 0 8 32 c3 18 29 66 57 108
73 107 90 157 93 268 3 137 -16 196 -109 334 -41 60 -45 73 -43 117 2 43 10
62 54 124 62 90 90 157 98 237 l6 60 -160 0 -160 0 -6 -33z"/>
<path d="M2076 4927 c-3 -19 -24 -58 -46 -87 -82 -110 -110 -197 -106 -324 3
-108 28 -178 102 -287 43 -63 49 -77 49 -124 0 -45 -6 -61 -46 -122 -66 -98
-86 -140 -98 -208 -19 -104 -33 -95 149 -95 137 0 160 2 160 15 0 17 38 96 50
105 21 16 82 134 95 185 18 74 13 250 -8 271 -4 4 -7 14 -7 21 0 8 -28 58 -62
110 -55 86 -62 102 -62 148 -1 47 4 60 57 136 61 89 85 150 94 237 l5 52 -160
0 -160 0 -6 -33z"/>
<path d="M2876 4926 c-4 -19 -22 -54 -41 -78 -87 -115 -122 -225 -112 -357 6
-84 39 -168 103 -262 43 -63 49 -77 49 -123 0 -46 -6 -62 -52 -132 -67 -101
-90 -158 -98 -233 l-6 -61 159 0 160 0 5 29 c4 16 33 70 66 121 70 106 83 145
87 256 4 132 -16 197 -104 327 -40 59 -46 75 -46 121 -1 49 4 60 56 137 65 95
82 137 93 227 l7 62 -160 0 -160 0 -6 -34z"/>
<path d="M164 2773 c6 -261 9 -316 20 -378 3 -16 8 -50 11 -75 4 -35 46 -251
59 -305 41 -169 146 -463 219 -615 161 -331 347 -603 583 -852 l65 -68 -481 0
-481 0 48 -92 c60 -113 120 -178 193 -206 55 -21 56 -21 1677 -21 l1623 -1 56
21 c79 30 139 93 197 206 l48 93 -476 0 c-261 0 -475 2 -475 5 0 3 10 16 23
29 66 68 129 139 185 208 66 81 72 85 142 87 52 2 100 8 185 22 33 6 71 13 85
15 260 46 687 247 970 457 288 214 393 586 262 925 -79 203 -256 372 -468 446
-108 38 -151 44 -321 45 l-113 1 0 160 0 160 -1921 0 -1922 0 7 -267z m4123
-389 c166 -43 295 -172 339 -337 19 -73 12 -218 -14 -285 -25 -64 -79 -137
-139 -187 -146 -122 -448 -290 -628 -350 -94 -31 -277 -76 -283 -70 -2 2 5 19
16 37 29 48 125 242 157 318 15 36 33 79 40 95 14 33 84 235 90 263 3 9 18 71
35 137 17 66 32 129 34 140 2 11 7 40 12 65 4 25 8 47 9 50 1 3 5 32 9 65 5
33 11 64 13 68 8 13 253 6 310 -9z m-2870 -1900 c-3 -3 -12 -4 -19 -1 -8 3 -5
6 6 6 11 1 17 -2 13 -5z"/>
</g>
</svg>
